<svg width="16" height="17" viewBox="0 0 16 17" fill="none" xmlns="http://www.w3.org/2000/svg">
<path fill-rule="evenodd" clip-rule="evenodd" d="M4.56244 5.94147C4.38969 5.94147 4.22401 6.01009 4.10185 6.13225C3.9797 6.2544 3.91107 6.42008 3.91107 6.59283C3.91107 6.76559 3.9797 6.93127 4.10185 7.05342C4.22401 7.17558 4.38969 7.2442 4.56244 7.2442H11.0761C11.2489 7.2442 11.4145 7.17558 11.5367 7.05342C11.6589 6.93127 11.7275 6.76559 11.7275 6.59283C11.7275 6.42008 11.6589 6.2544 11.5367 6.13225C11.4145 6.01009 11.2489 5.94147 11.0761 5.94147H4.56244ZM4.56244 7.89557C4.38969 7.89557 4.22401 7.96419 4.10185 8.08635C3.9797 8.20851 3.91107 8.37418 3.91107 8.54694C3.91107 8.71969 3.9797 8.88537 4.10185 9.00752C4.22401 9.12968 4.38969 9.1983 4.56244 9.1983H8.47064C8.6434 9.1983 8.80907 9.12968 8.93123 9.00752C9.05338 8.88537 9.12201 8.71969 9.12201 8.54694C9.12201 8.37418 9.05338 8.20851 8.93123 8.08635C8.80907 7.96419 8.6434 7.89557 8.47064 7.89557H4.56244ZM4.51945 2.03326H11.1191C11.6962 2.03326 12.1939 2.03326 12.5925 2.08668C13.0191 2.144 13.4288 2.27362 13.7604 2.60582C14.0926 2.93801 14.2222 3.34707 14.2795 3.77372C14.3329 4.17235 14.3329 4.67 14.3329 5.24711V9.24129C14.3329 9.8184 14.3329 10.316 14.2795 10.7147C14.2222 11.1413 14.0926 11.551 13.7604 11.8826C13.4282 12.2148 13.0191 12.3444 12.5925 12.4017C12.1939 12.4551 11.6962 12.4551 11.1191 12.4551H9.80855L8.46022 14.6125C8.39232 14.7212 8.29786 14.8109 8.18573 14.8731C8.0736 14.9353 7.94749 14.9679 7.81927 14.9679C7.69106 14.9679 7.56495 14.9353 7.45282 14.8731C7.34069 14.8109 7.24623 14.7212 7.17833 14.6125L5.83 12.4551H4.51945C3.94234 12.4551 3.44469 12.4551 3.04606 12.4017C2.61941 12.3444 2.2097 12.2148 1.87815 11.8826C1.54596 11.5504 1.41634 11.1413 1.35902 10.7147C1.3056 10.316 1.3056 9.8184 1.3056 9.24129V5.24711C1.3056 4.67 1.3056 4.17235 1.35902 3.77372C1.41634 3.34707 1.54596 2.93736 1.87815 2.60582C2.21035 2.27362 2.61941 2.144 3.04606 2.08668C3.44469 2.03326 3.94234 2.03326 4.51945 2.03326Z" fill="white" fill-opacity="0.5"/>
</svg>
