<svg width="16" height="16" viewBox="0 0 16 16" fill="none" xmlns="http://www.w3.org/2000/svg">
<path fill-rule="evenodd" clip-rule="evenodd" d="M4.72227 3.03798C5.28896 2.19315 6.26797 1.30273 7.81627 1.30273C9.36457 1.30273 10.3436 2.19315 10.9103 3.03798C11.2846 3.6054 11.5568 4.23387 11.7147 4.89502L12.7145 10.0499C12.7694 10.3328 12.761 10.6243 12.69 10.9035C12.619 11.1828 12.4871 11.4429 12.3037 11.6652C12.1204 11.8875 11.8902 12.0665 11.6296 12.1893C11.369 12.3122 11.0844 12.376 10.7963 12.376H4.83626C4.54813 12.376 4.26356 12.3122 4.00295 12.1893C3.74234 12.0665 3.51212 11.8875 3.3288 11.6652C3.14548 11.4429 3.01358 11.1828 2.94256 10.9035C2.87153 10.6243 2.86314 10.3328 2.91799 10.0499L3.91783 4.89502C4.07567 4.23364 4.34791 3.6056 4.72227 3.03798Z" fill="black"/>
<path fill-rule="evenodd" clip-rule="evenodd" d="M5.54581 13.0273C5.70995 13.34 5.96138 13.6676 6.34243 13.9178C6.73976 14.1783 7.23871 14.3301 7.84709 14.3301C8.45481 14.3301 8.95441 14.1783 9.35175 13.9178C9.7328 13.6676 9.98357 13.3407 10.1484 13.0273H5.54581Z" fill="black"/>
<path fill-rule="evenodd" clip-rule="evenodd" d="M11.2642 1.49357C11.1421 1.61572 11.0735 1.78137 11.0735 1.95408C11.0735 2.1268 11.1421 2.29245 11.2642 2.4146C11.8023 2.95263 12.0863 3.48024 12.3957 4.71784C12.4386 4.88433 12.5457 5.02707 12.6935 5.11494C12.8413 5.20281 13.0179 5.22867 13.1847 5.18688C13.3514 5.1451 13.495 5.03906 13.5839 4.89189C13.6728 4.74472 13.6999 4.56836 13.6593 4.40127C13.3174 3.0334 12.9493 2.25827 12.1853 1.49357C12.0631 1.37146 11.8975 1.30286 11.7248 1.30286C11.552 1.30286 11.3864 1.37146 11.2642 1.49357ZM4.36887 1.49357C4.49099 1.61572 4.55958 1.78137 4.55958 1.95408C4.55958 2.1268 4.49099 2.29245 4.36887 2.4146C3.83084 2.95263 3.54685 3.48024 3.23745 4.71784C3.19447 4.88433 3.08741 5.02707 2.93961 5.11494C2.79181 5.20281 2.61526 5.22867 2.44847 5.18688C2.28167 5.1451 2.13817 5.03906 2.04925 4.89189C1.96033 4.74472 1.9332 4.56836 1.9738 4.40127C2.31576 3.0334 2.68379 2.25827 3.44784 1.49357C3.56999 1.37146 3.73564 1.30286 3.90836 1.30286C4.08108 1.30286 4.24672 1.37146 4.36887 1.49357Z" fill="black"/>
<circle cx="3.25681" cy="9.11914" r="2.60547" fill="#FF0000"/>
</svg>
