<svg width="16" height="17" viewBox="0 0 16 17" fill="none" xmlns="http://www.w3.org/2000/svg">
<path fill-rule="evenodd" clip-rule="evenodd" d="M1.3056 8.28128C1.3056 4.68378 4.22177 1.76761 7.81927 1.76761C11.4168 1.76761 14.3329 4.68378 14.3329 8.28128C14.3329 11.8788 11.4168 14.795 7.81927 14.795C4.22177 14.795 1.3056 11.8788 1.3056 8.28128ZM5.21381 6.97855C5.21381 6.80579 5.28243 6.64012 5.40459 6.51796C5.52674 6.3958 5.69242 6.32718 5.86517 6.32718H9.77338C9.94613 6.32718 10.1118 6.3958 10.234 6.51796C10.3561 6.64012 10.4247 6.80579 10.4247 6.97855C10.4247 7.1513 10.3561 7.31698 10.234 7.43913C10.1118 7.56129 9.94613 7.62991 9.77338 7.62991H5.86517C5.69242 7.62991 5.52674 7.56129 5.40459 7.43913C5.28243 7.31698 5.21381 7.1513 5.21381 6.97855ZM5.21381 9.58401C5.21381 9.41126 5.28243 9.24558 5.40459 9.12343C5.52674 9.00127 5.69242 8.93265 5.86517 8.93265H9.77338C9.94613 8.93265 10.1118 9.00127 10.234 9.12343C10.3561 9.24558 10.4247 9.41126 10.4247 9.58401C10.4247 9.75677 10.3561 9.92245 10.234 10.0446C10.1118 10.1668 9.94613 10.2354 9.77338 10.2354H5.86517C5.69242 10.2354 5.52674 10.1668 5.40459 10.0446C5.28243 9.92245 5.21381 9.75677 5.21381 9.58401Z" fill="white" fill-opacity="0.5"/>
</svg>
