<svg width="85" height="84" viewBox="0 0 85 84" fill="none" xmlns="http://www.w3.org/2000/svg">
<rect x="0.714539" y="0.109375" width="83.375" height="83.375" rx="20.8438" fill="url(#paint0_linear_36_48)"/>
<path d="M69.0708 39.4454L65.5969 35.9715C65.5162 35.8908 65.4205 35.8268 65.3151 35.7832C65.2098 35.7395 65.0969 35.717 64.9828 35.717C64.8688 35.717 64.7558 35.7395 64.6505 35.7832C64.5451 35.8268 64.4494 35.8908 64.3688 35.9715L60.8948 39.4454C60.8141 39.5261 60.7501 39.6218 60.7065 39.7271C60.6628 39.8325 60.6404 39.9454 60.6404 40.0595V48.7444C60.6404 48.8584 60.6628 48.9714 60.7064 49.0768C60.7501 49.1821 60.814 49.2779 60.8947 49.3585C60.9753 49.4392 61.0711 49.5032 61.1765 49.5468C61.2819 49.5904 61.3948 49.6129 61.5089 49.6129H68.4568C68.5708 49.6129 68.6838 49.5904 68.7892 49.5468C68.8946 49.5032 68.9903 49.4392 69.071 49.3585C69.1516 49.2779 69.2156 49.1821 69.2592 49.0768C69.3029 48.9714 69.3253 48.8584 69.3253 48.7444V40.0595C69.3253 39.9454 69.3028 39.8325 69.2592 39.7271C69.2155 39.6218 69.1515 39.5261 69.0708 39.4454Z" fill="white"/>
<path d="M53.6925 28.7691H27.6378C27.5237 28.7691 27.4108 28.7915 27.3054 28.8352C27.2 28.8788 27.1042 28.9428 27.0236 29.0234C26.9429 29.1041 26.879 29.1998 26.8353 29.3052C26.7917 29.4106 26.7693 29.5235 26.7693 29.6376V42.6649C26.7693 42.8302 26.8164 42.9921 26.9052 43.1315C26.994 43.271 27.1207 43.3821 27.2705 43.452L40.2979 49.5314C40.4129 49.5851 40.5382 49.6129 40.6651 49.6129C40.792 49.6129 40.9174 49.5851 41.0324 49.5314L54.0597 43.452C54.2095 43.3821 54.3363 43.271 54.425 43.1315C54.5138 42.9921 54.561 42.8302 54.561 42.6649V29.6376C54.561 29.5235 54.5385 29.4106 54.4949 29.3052C54.4513 29.1998 54.3873 29.1041 54.3066 29.0234C54.226 28.9428 54.1302 28.8788 54.0249 28.8352C53.9195 28.7915 53.8065 28.7691 53.6925 28.7691Z" fill="white"/>
<path d="M53.6925 28.7691H27.6378C27.5237 28.7691 27.4108 28.7915 27.3054 28.8352C27.2 28.8788 27.1042 28.9428 27.0236 29.0234C26.9429 29.1041 26.879 29.1998 26.8353 29.3052C26.7917 29.4106 26.7693 29.5235 26.7693 29.6376V38.0075L40.2979 44.3205C40.4129 44.3741 40.5382 44.4019 40.6651 44.4019C40.792 44.4019 40.9174 44.3741 41.0324 44.3205L54.561 38.0074V29.6376C54.561 29.5235 54.5385 29.4106 54.4949 29.3052C54.4513 29.1998 54.3873 29.1041 54.3066 29.0234C54.226 28.9428 54.1302 28.8788 54.0249 28.8352C53.9195 28.7915 53.8065 28.7691 53.6925 28.7691Z" fill="white"/>
<path d="M65.3484 25.3757L41.0307 14.0854C40.9161 14.0326 40.7914 14.0052 40.6651 14.0052C40.5389 14.0052 40.4142 14.0326 40.2996 14.0854L15.9819 25.3757C15.8317 25.4455 15.7045 25.5567 15.6154 25.6963C15.5263 25.8359 15.4789 25.998 15.4789 26.1636C15.4789 26.3293 15.5263 26.4914 15.6154 26.631C15.7045 26.7706 15.8317 26.8818 15.9819 26.9516L40.2996 38.2419C40.4142 38.295 40.5389 38.3225 40.6651 38.3225C40.7914 38.3225 40.9161 38.295 41.0307 38.2419L65.3484 26.9516C65.4986 26.8818 65.6258 26.7706 65.7149 26.631C65.804 26.4914 65.8513 26.3293 65.8513 26.1636C65.8513 25.998 65.804 25.8359 65.7149 25.6963C65.6258 25.5567 65.4986 25.4455 65.3484 25.3757Z" fill="white"/>
<path d="M64.9828 33.9801C64.8688 33.9801 64.7558 33.9576 64.6504 33.914C64.5451 33.8704 64.4493 33.8064 64.3686 33.7258C64.288 33.6451 64.224 33.5493 64.1804 33.444C64.1368 33.3386 64.1143 33.2256 64.1143 33.1116V27.0321H40.6651C40.4348 27.0321 40.2139 26.9406 40.051 26.7778C39.8881 26.6149 39.7966 26.394 39.7966 26.1637C39.7966 25.9333 39.8881 25.7124 40.051 25.5495C40.2139 25.3867 40.4348 25.2952 40.6651 25.2952H64.9828C65.0969 25.2951 65.2098 25.3176 65.3152 25.3612C65.4206 25.4049 65.5164 25.4688 65.597 25.5495C65.6777 25.6301 65.7416 25.7259 65.7853 25.8313C65.8289 25.9366 65.8513 26.0496 65.8513 26.1637V33.1116C65.8513 33.2256 65.8289 33.3386 65.7853 33.444C65.7416 33.5493 65.6777 33.6451 65.597 33.7258C65.5164 33.8064 65.4206 33.8704 65.3152 33.914C65.2098 33.9576 65.0969 33.9801 64.9828 33.9801Z" fill="white"/>
<path d="M64.9828 39.191C66.9014 39.191 68.4568 37.6356 68.4568 35.717C68.4568 33.7984 66.9014 32.2431 64.9828 32.2431C63.0642 32.2431 61.5089 33.7984 61.5089 35.717C61.5089 37.6356 63.0642 39.191 64.9828 39.191Z" fill="white"/>
<path d="M57.8378 66.0836C56.6745 65.7664 55.4294 62.9108 55.4294 59.1663C55.4294 55.4217 56.6745 52.5661 57.8378 52.2489C58.0515 52.1905 58.2348 52.0527 58.3503 51.8637C58.4658 51.6746 58.5047 51.4486 58.459 51.2318C58.4134 51.015 58.2866 50.8239 58.1047 50.6975C57.9227 50.571 57.6994 50.5189 57.4803 50.5517L40.6651 53.0775L23.8445 50.5509L23.4187 50.4898C23.3779 50.4841 23.3366 50.4812 23.2953 50.4814C20.8196 50.4814 18.9529 54.2148 18.9529 59.1663C18.9529 64.1177 20.8196 67.8512 23.2953 67.8512C23.3366 67.8513 23.3779 67.8484 23.4187 67.8427L40.6651 65.255L57.4802 67.7808C57.6993 67.8136 57.9227 67.7615 58.1046 67.6351C58.2866 67.5087 58.4133 67.3175 58.459 67.1008C58.5046 66.884 58.4658 66.6579 58.3503 66.4689C58.2348 66.2798 58.0515 66.142 57.8378 66.0836Z" fill="white"/>
<path d="M44.1391 51.3499H37.1911C36.7306 51.3504 36.2891 51.5336 35.9635 51.8592C35.6379 52.1848 35.4547 52.6263 35.4542 53.0868V68.7196C35.4542 68.8616 35.489 69.0014 35.5555 69.1267C35.6221 69.2521 35.7183 69.3593 35.8358 69.4389C35.9534 69.5185 36.0886 69.568 36.2297 69.5833C36.3709 69.5985 36.5136 69.5789 36.6454 69.5262L40.6651 67.9182L44.6848 69.5262C44.8166 69.5789 44.9593 69.5985 45.1005 69.5833C45.2416 69.568 45.3768 69.5185 45.4944 69.4389C45.6119 69.3593 45.7081 69.2521 45.7747 69.1267C45.8412 69.0014 45.876 68.8616 45.876 68.7196V53.0868C45.8755 52.6263 45.6923 52.1848 45.3667 51.8592C45.0411 51.5336 44.5996 51.3504 44.1391 51.3499Z" fill="white"/>
<path d="M58.0349 50.4814C57.9936 50.4812 57.9524 50.4841 57.9115 50.4898L57.4857 50.5509C57.4503 50.5561 57.4151 50.5635 57.3806 50.573C55.2089 51.1658 53.6924 54.6991 53.6924 59.1663C53.6924 63.6334 55.2089 67.1667 57.3806 67.7596C57.4151 67.769 57.4503 67.7764 57.4857 67.7816L57.9115 67.8427C57.9524 67.8484 57.9936 67.8513 58.0349 67.8512C60.5106 67.8512 62.3773 64.1177 62.3773 59.1663C62.3773 54.2148 60.5106 50.4814 58.0349 50.4814Z" fill="white"/>
<path d="M56.2979 58.2978H53.7127C53.6999 58.5831 53.6924 58.8723 53.6924 59.1662C53.6924 63.6334 55.2089 67.1667 57.3806 67.7595C57.4151 67.769 57.4503 67.7764 57.4857 67.7816L57.9115 67.8427C57.9524 67.8484 57.9936 67.8513 58.0349 67.8511C58.3318 67.8501 58.626 67.7952 58.9034 67.6894V60.9032C58.9026 60.2124 58.6279 59.5502 58.1394 59.0617C57.651 58.5733 56.9887 58.2985 56.2979 58.2978Z" fill="white"/>
<defs>
<linearGradient id="paint0_linear_36_48" x1="42.402" y1="0.109375" x2="42.402" y2="83.4844" gradientUnits="userSpaceOnUse">
<stop stop-color="#033F03"/>
<stop offset="1" stop-color="#158615"/>
</linearGradient>
</defs>
</svg>
