<svg width="16" height="16" viewBox="0 0 16 16" fill="none" xmlns="http://www.w3.org/2000/svg">
<path fill-rule="evenodd" clip-rule="evenodd" d="M9.12201 14.5293H3.2597C2.74144 14.5293 2.24441 14.3235 1.87795 13.957C1.51148 13.5905 1.3056 13.0935 1.3056 12.5752V3.45609C1.3056 2.93783 1.51148 2.44079 1.87795 2.07433C2.24441 1.70786 2.74144 1.50198 3.2597 1.50198H13.0302C13.5485 1.50198 14.0455 1.70786 14.412 2.07433C14.7784 2.44079 14.9843 2.93783 14.9843 3.45609V12.5752C14.9843 13.0935 14.7784 13.5905 14.412 13.957C14.0455 14.3235 13.5485 14.5293 13.0302 14.5293H9.12201ZM3.37044 13.2266C3.29879 13.0227 3.2597 12.8032 3.2597 12.5752V3.45609C3.2597 3.22811 3.29879 3.0086 3.37044 2.80472H3.2597C3.08695 2.80472 2.92127 2.87334 2.79912 2.9955C2.67696 3.11765 2.60834 3.28333 2.60834 3.45609V12.5752C2.60834 12.748 2.67696 12.9137 2.79912 13.0358C2.92127 13.158 3.08695 13.2266 3.2597 13.2266H3.37044ZM5.86517 5.41996C5.865 5.33442 5.88168 5.24968 5.91426 5.17059C5.94683 5.0915 5.99467 5.0196 6.05503 4.95899C6.1154 4.89838 6.18711 4.85026 6.26607 4.81737C6.34503 4.78448 6.4297 4.76746 6.51524 4.76729L11.7262 4.75882C11.8989 4.75847 12.0647 4.82677 12.1871 4.94868C12.3095 5.07059 12.3785 5.23613 12.3788 5.40888C12.3792 5.58164 12.3109 5.74745 12.189 5.86985C12.0671 5.99225 11.9015 6.06121 11.7288 6.06155L6.51784 6.07002C6.4323 6.07019 6.34757 6.05351 6.26848 6.02094C6.18938 5.98836 6.11748 5.94053 6.05688 5.88016C5.99627 5.8198 5.94815 5.74809 5.91525 5.66913C5.88236 5.59016 5.86534 5.5055 5.86517 5.41996ZM5.86517 8.03324C5.865 7.8606 5.93337 7.69495 6.05526 7.5727C6.17716 7.45044 6.3426 7.38157 6.51524 7.38122L11.7262 7.37276C11.8989 7.37241 12.0647 7.4407 12.1871 7.56262C12.3095 7.68453 12.3785 7.85007 12.3788 8.02282C12.3792 8.19557 12.3109 8.36139 12.189 8.48379C12.0671 8.60619 11.9015 8.67514 11.7288 8.67549L6.51784 8.68396C6.4323 8.68413 6.34757 8.66745 6.26848 8.63487C6.18938 8.6023 6.11748 8.55446 6.05688 8.4941C5.99627 8.43373 5.94815 8.36202 5.91525 8.28306C5.88236 8.2041 5.86534 8.11878 5.86517 8.03324ZM5.86517 10.6387C5.865 10.4661 5.93337 10.3004 6.05526 10.1782C6.17716 10.0559 6.3426 9.98704 6.51524 9.98669L11.7262 9.97822C11.8989 9.97788 12.0647 10.0462 12.1871 10.1681C12.3095 10.29 12.3785 10.4555 12.3788 10.6283C12.3792 10.801 12.3109 10.9669 12.189 11.0893C12.0671 11.2117 11.9015 11.2806 11.7288 11.281L6.51784 11.2894C6.4323 11.2896 6.34757 11.2729 6.26848 11.2403C6.18938 11.2078 6.11748 11.1599 6.05688 11.0996C5.99627 11.0392 5.94815 10.9675 5.91525 10.8885C5.88236 10.8096 5.86534 10.7242 5.86517 10.6387Z" fill="white" fill-opacity="0.5"/>
</svg>
