<svg width="11" height="12" viewBox="0 0 11 12" fill="none" xmlns="http://www.w3.org/2000/svg">
<path fill-rule="evenodd" clip-rule="evenodd" d="M2.72227 2.03798C3.28896 1.19315 4.26797 0.302734 5.81627 0.302734C7.36457 0.302734 8.34357 1.19315 8.91026 2.03798C9.28455 2.6054 9.5568 3.23387 9.7147 3.89502L10.7145 9.04994C10.7694 9.33281 10.761 9.6243 10.69 9.90355C10.619 10.1828 10.4871 10.4429 10.3037 10.6652C10.1204 10.8875 9.8902 11.0665 9.62958 11.1893C9.36897 11.3122 9.0844 11.376 8.79627 11.376H2.83626C2.54813 11.376 2.26356 11.3122 2.00295 11.1893C1.74234 11.0665 1.51212 10.8875 1.3288 10.6652C1.14548 10.4429 1.01358 10.1828 0.942558 9.90355C0.871535 9.6243 0.863144 9.33281 0.917985 9.04994L1.91783 3.89502C2.07567 3.23364 2.34791 2.6056 2.72227 2.03798Z" fill="black"/>
</svg>
